<svg version="1.1" id="Layer_1" xmlns="http://www.w3.org/2000/svg" xmlns:xlink="http://www.w3.org/1999/xlink" x="0px" y="0px"
 viewBox="0 0 612 612" enable-background="new 0 0 612 612" xml:space="preserve">
<g>
	<g>
		<path fill="#000" d="M518.692,224.619c0,0,16.234-36.709-33.828-70.117c0,0,20.498,25.316,9.949,53.6
			c0,0-36.78-25.594-55.286-43.949c0,0,23.124,32.646,31.424,39.309c0,0-13.801-7.012-45.778-33.707
			c0,0,36.682,46.965,53.976,56.773c0,0-26.17,17.551-64.474-7.217c0,0,20.148,34.832,62.653,34.832
			c19.109,0,24.71-9.631,34.176-9.631c9.793,0,15.692,9.631,15.692,9.631C532.913,240.355,518.692,224.619,518.692,224.619z"/>
	</g>
</g>
<path fill="#000" d="M355.014,76.894l-42.589-23.938c-3.23-1.807-7.242-1.807-10.473,0l-42.589,23.938
	c-3.26,1.828-5.285,5.256-5.285,8.932v47.873c0,3.676,2.025,7.104,5.285,8.932l42.589,23.938c1.62,0.908,3.429,1.363,5.236,1.363
	s3.615-0.455,5.236-1.363l42.589-23.938c3.26-1.828,5.285-5.256,5.285-8.932V85.826C360.299,82.15,358.273,78.722,355.014,76.894z
	 M307.188,140.111c-16.735,0-30.349-13.613-30.349-30.35c0-16.734,13.613-30.348,30.349-30.348c9.563,0,18.395,4.436,24.135,11.992
	l-11.084,6.412c-3.33-3.645-8.062-5.76-13.051-5.76c-9.761,0-17.703,7.943-17.703,17.703c0,9.762,7.942,17.705,17.703,17.705
	c4.989,0,9.721-2.115,13.051-5.76l11.084,6.41C325.583,135.675,316.751,140.111,307.188,140.111z M337.537,112.291h-5.058v5.059
	h-5.059v-5.059h-5.059v-5.059h5.059v-5.057h5.059v5.057h5.058V112.291z M355.24,112.291h-5.058v5.059h-5.059v-5.059h-5.058v-5.059
	h5.058v-5.057h5.059v5.057h5.058V112.291z"/>
<g id="XMLID_7_">
	<path id="XMLID_8_" fill="#000" d="M139.292,353.423c-6.676,4.693-14.242,10.016-18.296,18.82
		c-7.042,15.359,14.409,32.115,15.326,32.822c0.213,0.164,0.468,0.246,0.722,0.246c0.27,0,0.54-0.094,0.76-0.277
		c0.425-0.355,0.546-0.961,0.291-1.453c-0.077-0.15-7.777-15.105-7.491-25.836c0.102-3.736,5.331-7.975,10.867-12.463
		c5.071-4.111,10.819-8.771,14.182-14.221c7.383-11.996-0.823-23.793-0.906-23.912c-0.326-0.457-0.927-0.623-1.442-0.396
		c-0.514,0.227-0.798,0.781-0.681,1.33c0.017,0.078,1.613,7.881-2.828,15.918C147.966,347.322,143.947,350.15,139.292,353.423z"/>
	<path id="XMLID_9_" fill="#000" d="M167.418,358.712c0.471-0.355,0.609-1.002,0.324-1.518c-0.285-0.516-0.907-0.744-1.458-0.535
		c-1.134,0.432-27.771,10.697-27.771,23.105c0,8.551,3.653,13.068,6.32,16.367c1.047,1.295,1.95,2.412,2.247,3.367
		c0.838,2.748-1.147,7.717-1.981,9.4c-0.241,0.482-0.123,1.07,0.286,1.422c0.222,0.193,0.498,0.289,0.774,0.289
		c0.235,0,0.472-0.07,0.676-0.213c0.458-0.318,11.193-7.908,9.268-17.053c-0.717-3.477-2.425-6.016-3.932-8.256
		c-2.335-3.473-4.021-5.98-1.463-10.613C153.707,369.074,167.281,358.816,167.418,358.712z"/>
	<path id="XMLID_10_" fill="#000" d="M98.082,410.808c-0.457,1.367-0.241,2.723,0.623,3.924
		c2.887,4.008,13.116,6.215,28.801,6.215c0.001,0,0.001,0,0.002,0c2.125,0,4.37-0.041,6.668-0.123
		c25.079-0.898,34.38-8.711,34.764-9.043c0.418-0.361,0.53-0.965,0.27-1.453c-0.26-0.486-0.821-0.732-1.357-0.584
		c-8.832,2.41-25.325,3.268-36.764,3.268c-12.801,0-19.32-0.922-20.916-1.604c0.819-1.125,5.87-3.133,12.129-4.363
		c0.598-0.117,1.009-0.67,0.95-1.275c-0.06-0.607-0.569-1.07-1.179-1.07C118.404,404.699,100.004,404.994,98.082,410.808z"/>
	<path id="XMLID_11_" fill="#000" d="M182,402.763c-5.173,0-10.078,2.592-10.284,2.701c-0.479,0.256-0.721,0.805-0.59,1.33
		c0.132,0.527,0.605,0.896,1.147,0.898c0.11,0,11.034,0.09,12.023,6.33c0.876,5.385-10.336,14.109-14.73,17.018
		c-0.475,0.314-0.659,0.922-0.439,1.445c0.187,0.447,0.622,0.727,1.092,0.727c0.082,0,0.165-0.008,0.247-0.027
		c1.043-0.223,25.51-5.613,22.924-19.861C191.812,404.593,186.325,402.763,182,402.763z"/>
	<path id="XMLID_12_" fill="#000" d="M165.22,429.296c0.085-0.457-0.105-0.92-0.485-1.186l-5.867-4.109
		c-0.286-0.201-0.647-0.266-0.983-0.176c-0.061,0.018-6.196,1.629-15.104,2.619c-3.535,0.395-7.495,0.605-11.452,0.605
		c-8.905,0-14.728-1.047-15.575-1.814c-0.113-0.215-0.077-0.314-0.057-0.367c0.154-0.43,0.98-0.939,1.512-1.141
		c0.588-0.217,0.905-0.855,0.722-1.455c-0.182-0.6-0.8-0.953-1.411-0.807c-5.885,1.42-8.763,3.408-8.553,5.902
		c0.372,4.426,10.624,6.699,19.291,7.299c1.246,0.086,2.594,0.129,4.005,0.129c0.001,0,0.001,0,0.002,0
		c14.412,0,32.888-4.521,33.073-4.568C164.79,430.117,165.134,429.753,165.22,429.296z"/>
	<path id="XMLID_13_" fill="#000" d="M120.989,438.796c0.444-0.289,0.642-0.838,0.484-1.344s-0.63-0.838-1.162-0.832
		c-0.789,0.021-7.717,0.334-8.202,4.746c-0.147,1.316,0.23,2.521,1.123,3.578c2.487,2.949,9.203,4.699,20.526,5.357
		c1.34,0.08,2.7,0.121,4.045,0.121c14.395,0,24.091-4.508,24.497-4.699c0.394-0.186,0.653-0.572,0.676-1.008
		c0.023-0.434-0.194-0.848-0.565-1.074l-7.415-4.525c-0.257-0.158-0.565-0.209-0.859-0.148c-0.047,0.008-4.754,0.986-11.858,1.951
		c-1.345,0.182-3.028,0.273-5.003,0.273c-7.097,0-14.991-1.158-16.504-1.918C120.749,439.132,120.777,438.953,120.989,438.796z"/>
	<path id="XMLID_14_" fill="#000" d="M131.093,464.033c32.974-0.029,50.671-5.893,54.081-9.584
		c1.207-1.305,1.337-2.541,1.234-3.348c-0.253-1.986-2.062-3.203-2.268-3.336c-0.495-0.318-1.159-0.234-1.545,0.211
		c-0.385,0.445-0.395,1.096-0.008,1.541c0.208,0.268,0.328,0.715-0.28,1.324c-1.363,1.273-15.109,5.137-37.998,6.297
		c-3.135,0.162-6.424,0.246-9.773,0.246c-20.493,0-35.49-2.805-37.459-4.443c0.759-1.09,6.063-2.832,11.705-3.816
		c0.636-0.111,1.065-0.709,0.967-1.348c-0.099-0.637-0.687-1.076-1.329-0.992c-0.159,0.021-0.698,0.055-1.324,0.092
		c-9.309,0.568-20.066,1.836-20.627,6.633c-0.17,1.461,0.264,2.787,1.291,3.941c2.514,2.824,9.74,6.58,43.331,6.58
		C131.093,464.033,131.093,464.033,131.093,464.033z"/>
	<path id="XMLID_15_" fill="#000" d="M191.65,455.49c-0.465-0.217-1.016-0.105-1.365,0.27c-0.048,0.051-5.006,5.234-19.911,8.279
		c-5.707,1.143-16.418,1.723-31.837,1.723c-15.449,0-30.147-0.607-30.294-0.613c-0.614-0.031-1.14,0.416-1.223,1.02
		c-0.083,0.605,0.306,1.176,0.899,1.314c0.153,0.037,15.558,3.646,36.621,3.646c10.103,0,19.933-0.82,29.219-2.439
		c17.315-3.035,18.527-11.621,18.57-11.984C192.39,456.195,192.116,455.707,191.65,455.49z"/>
</g>
<g>
	<path fill="#000" d="M167.634,157.022c0-12.384-10.039-22.423-22.426-22.423h-13.454c-12.387,0-22.423,10.039-22.423,22.423
		v7.876h28.925v6.342l-42.397,0.019c-12.384,0-22.422,10.039-22.422,22.426v13.454c0,12.384,10.039,22.423,22.422,22.423h12.874
		v-25.886h58.911L167.634,157.022z M120.977,158.141c-1.804,0-3.266-1.462-3.266-3.264c0-1.803,1.461-3.266,3.266-3.266
		c1.801,0,3.263,1.463,3.263,3.266C124.24,156.679,122.778,158.141,120.977,158.141z"/>
	<path fill="#000" d="M187.011,183.397h-12.874v25.887h-58.912l0.01,46.652c0,12.385,10.039,22.423,22.426,22.423h13.454
		c12.387,0,22.423-10.038,22.423-22.423v-7.876h-28.925v-6.342l42.397-0.019c12.384,0,22.423-10.038,22.423-22.425v-13.454
		C209.434,193.436,199.396,183.397,187.011,183.397z M161.893,254.818c1.804,0,3.266,1.462,3.266,3.263
		c0,1.803-1.462,3.266-3.266,3.266c-1.801,0-3.263-1.463-3.263-3.266C158.63,256.28,160.092,254.818,161.893,254.818z"/>
</g>
<g>
	<g>
		<path fill="#000" d="M370.331,468.472c0.002,0-22.017-29.361-22.017-29.361c-0.463-0.617-1.188-0.979-1.958-0.979H270.02
			c-0.77,0-1.494,0.361-1.957,0.979l-22.018,29.361c-0.307,0.409-0.492,0.916-0.492,1.467v19.573c0,0.601,0.218,1.149,0.577,1.576
			l60.188,71.444c0.464,0.551,1.149,0.869,1.87,0.869c0.723,0,1.406-0.318,1.871-0.869c0,0,60.188-71.444,60.188-71.444
			c0.359-0.427,0.577-0.976,0.577-1.576v-19.573C370.823,469.388,370.639,468.881,370.331,468.472z M346.67,445.074l16.813,22.418
			h-31.447L346.67,445.074z M342.163,443.025l-14.646,22.438l-14.646-22.438H342.163z M320.992,482.171h4.078v4.895h-33.438v-14.681
			h33.438v4.894h-4.078c-1.349,0-2.447,1.1-2.447,2.447S319.644,482.171,320.992,482.171z M322.998,467.492h-29.294l14.647-22.438
			L322.998,467.492z M303.833,443.025l-14.646,22.438l-14.647-22.438H303.833z M269.881,444.842l14.786,22.649h-31.773
			L269.881,444.842z M250.447,472.385h36.291v14.681h-36.291V472.385z M253.26,491.959h33.886l15.832,59.013L253.26,491.959z
			 M308.188,551.512l-15.977-59.553h31.952L308.188,551.512z M313.399,550.972l15.832-59.013h33.885L313.399,550.972z
			 M365.93,477.279h-18.839c-1.349,0-2.447,1.1-2.447,2.447s1.099,2.445,2.447,2.445h18.839v4.895h-35.966v-14.681h35.966V477.279z"
			/>
	</g>
</g>
<polygon fill="none" stroke="#000" stroke-width="15" stroke-miterlimit="10" points="251.728,401.119 196.268,305.059 
	251.728,208.999 362.648,208.999 418.109,305.059 362.648,401.119 "/>
<polygon fill="none" stroke="#000" stroke-width="15" stroke-miterlimit="10" points="85.405,305.14 29.945,209.08 
	85.405,113.019 196.326,113.019 251.787,209.08 196.326,305.14 "/>
<polygon fill="none" stroke="#000" stroke-width="15" stroke-miterlimit="10" points="251.743,209.015 196.283,112.955 
	251.743,16.894 362.664,16.894 418.125,112.955 362.664,209.015 "/>
<polygon fill="none" stroke="#000" stroke-width="15" stroke-miterlimit="10" points="418.072,305.06 362.611,209 
	418.072,112.939 528.992,112.939 584.453,209 528.992,305.06 "/>
<polygon fill="none" stroke="#000" stroke-width="15" stroke-miterlimit="10" points="418.107,497.18 362.646,401.12 
	418.107,305.06 529.027,305.06 584.488,401.12 529.027,497.18 "/>
<polygon fill="none" stroke="#000" stroke-width="15" stroke-miterlimit="10" points="251.729,593.241 196.268,497.18 
	251.729,401.12 362.648,401.12 418.109,497.18 362.648,593.241 "/>
<polygon fill="none" stroke="#000" stroke-width="15" stroke-miterlimit="10" points="85.316,497.21 29.855,401.15 
	85.316,305.091 196.236,305.091 251.697,401.15 196.236,497.21 "/>
<g>
	<path fill-rule="evenodd" clip-rule="evenodd" fill="none" stroke="#000" stroke-miterlimit="10" d="M481.572,398.723"/>
	<path fill-rule="evenodd" clip-rule="evenodd" fill="none" stroke="#000" stroke-miterlimit="10" d="M481.572,398.723"/>
	<path fill-rule="evenodd" clip-rule="evenodd" fill="none" stroke="#000" stroke-miterlimit="10" d="M440.152,403.931"/>
	<path fill="none" stroke="#000" stroke-width="5" stroke-miterlimit="10" d="M435.063,364.261
		c-1.824,14.467,1.566,35.825,1.59,37.826c0.215,18.586-0.074,39.521,1.405,43.369c1.479,3.846,5.432,7.69,5.432,7.69
		s5.725,9.263,34.823,9.187c32.616-0.085,34.341-26.279,34.341-26.279l-1.797-35.037c0,0,0.363-38.582-3.488-48.281
		c-6.623-16.674-22.992-16.986-33.535-16.664c-12.283,0.375-23.508-0.854-35.775,18.16
		C436.513,356.626,435.579,360.168,435.063,364.261"/>
	<path fill="none" stroke="#000" stroke-width="4" stroke-miterlimit="10" d="M437.79,403.714
		c-6.277,2.393-3.265,3.555-6.026,3.555s-3.975-0.349-3.975-3.555c0-3.205,2.239-5.803,5.001-5.803S440.119,402.828,437.79,403.714z
		"/>
	
		<ellipse fill="none" stroke="#000" stroke-width="3" stroke-miterlimit="10" cx="457.803" cy="354.348" rx="12.033" ry="10.778"/>
	<path fill="none" stroke="#000" stroke-width="4" stroke-miterlimit="10" d="M453.743,460.752
		c-10.681,3.077-5.554,4.571-10.253,4.571s-6.763-0.447-6.763-4.571s3.81-7.468,8.509-7.468
		C449.935,453.285,457.706,459.611,453.743,460.752z"/>
	<path fill="none" stroke="#000" stroke-width="4" stroke-miterlimit="10" d="M496.733,459.181
		c8.899,3.077,4.628,4.572,8.544,4.572s5.635-0.447,5.635-4.572c0-4.123-3.174-7.467-7.09-7.467
		C499.907,451.714,493.431,458.041,496.733,459.181z"/>
	<path fill="none" stroke="#000" stroke-width="4" stroke-miterlimit="10" d="M509.863,403.714
		c6.918,2.393,3.598,3.555,6.641,3.555s4.381-0.349,4.381-3.555c0-3.205-2.467-5.803-5.512-5.803
		C512.33,397.912,507.297,402.828,509.863,403.714z"/>
	
		<ellipse fill="none" stroke="#000" stroke-width="3" stroke-miterlimit="10" cx="487.475" cy="352.746" rx="12.033" ry="10.459"/>
	<path fill="none" stroke="#000" stroke-width="4" stroke-miterlimit="10" d="M436.53,359.685
		c-3.232-1.578-5.458-4.895-5.458-8.73c0-5.363,4.353-9.711,9.721-9.711c2.014,0,3.883,0.611,5.435,1.658"/>
	<path fill="none" stroke="#000" stroke-width="4" stroke-miterlimit="10" d="M509.972,359.031
		c3.196-1.578,5.397-4.895,5.397-8.73c0-5.363-4.303-9.712-9.613-9.712c-1.99,0-3.841,0.612-5.375,1.659"/>
	<ellipse fill="none" stroke="#000" stroke-width="4" stroke-miterlimit="10" cx="452.47" cy="355.561" rx="3.585" ry="3.345"/>
	<ellipse fill="none" stroke="#000" stroke-width="4" stroke-miterlimit="10" cx="482.493" cy="354.099" rx="3.605" ry="3.725"/>
	<path fill="none" stroke="#000" stroke-width="5" stroke-miterlimit="10" d="M473.858,378.01
		c0.073,0.406,0.111,0.833,0.111,1.272c0,2.744-1.503,4.968-3.356,4.968s-3.355-2.224-3.355-4.968c0-0.765,0.117-1.489,0.325-2.137"
		/>
	<path fill="none" stroke="#000" stroke-width="5" stroke-miterlimit="10" d="M481.168,376.636
		c0.232,0.675,0.363,1.438,0.363,2.248c0,2.742-1.502,4.967-3.355,4.967s-3.356-2.225-3.356-4.967c0-0.325,0.021-0.643,0.062-0.95"
		/>
	<ellipse fill="none" stroke="#000" stroke-width="4" stroke-miterlimit="10" cx="473.97" cy="371.726" rx="10.121" ry="5.395"/>
	<ellipse fill="none" stroke="#000" stroke-width="3" stroke-miterlimit="10" cx="473.97" cy="364.821" rx="4.206" ry="2.617"/>
</g>
<g>
	<path fill="#1E2022" fill-opacity="0" stroke="#000" stroke-width="11.5645" d="M237.594,293.197l59.653-59.653
		c5.49-5.49,14.394-5.491,19.885,0l59.652,59.653c5.49,5.491,5.49,14.394,0,19.884l-59.652,59.653
		c-5.491,5.491-14.394,5.49-19.884,0l-59.653-59.653C232.104,307.59,232.103,298.688,237.594,293.197z"/>
	<g style="display:none;">
		<line fill="none" stroke="#000" stroke-width="3" x1="241.074" y1="314.573" x2="245.051" y2="310.596"/>
		
			<line fill="none" stroke="#000" stroke-width="3" stroke-linecap="round" x1="241.074" y1="314.573" x2="243.063" y2="312.584"/>
		<line fill="none" stroke="#000" x1="235.108" y1="320.538" x2="245.051" y2="310.596"/>
		<line fill="none" stroke="#000" stroke-width="3" x1="246.045" y1="319.544" x2="250.022" y2="315.568"/>
		
			<line fill="none" stroke="#000" stroke-width="3" stroke-linecap="round" x1="246.045" y1="319.544" x2="248.034" y2="317.555"/>
		<line fill="none" stroke="#000" x1="240.08" y1="325.509" x2="250.022" y2="315.568"/>
		<line fill="none" stroke="#000" stroke-width="3" x1="251.016" y1="324.515" x2="254.993" y2="320.539"/>
		
			<line fill="none" stroke="#000" stroke-width="3" stroke-linecap="round" x1="251.016" y1="324.515" x2="253.005" y2="322.527"/>
		<line fill="none" stroke="#000" x1="245.051" y1="330.48" x2="254.993" y2="320.539"/>
		<line fill="none" stroke="#000" stroke-width="3" x1="255.987" y1="329.486" x2="259.964" y2="325.509"/>
		
			<line fill="none" stroke="#000" stroke-width="3" stroke-linecap="round" x1="255.987" y1="329.486" x2="257.976" y2="327.498"/>
		<line fill="none" stroke="#000" x1="250.021" y1="335.451" x2="259.964" y2="325.509"/>
		<line fill="none" stroke="#000" stroke-width="3" x1="260.958" y1="334.458" x2="264.935" y2="330.481"/>
		
			<line fill="none" stroke="#000" stroke-width="3" stroke-linecap="round" x1="260.958" y1="334.458" x2="262.947" y2="332.468"/>
		<line fill="none" stroke="#000" x1="254.993" y1="340.422" x2="264.935" y2="330.481"/>
		<line fill="none" stroke="#000" stroke-width="3" x1="265.93" y1="339.429" x2="269.907" y2="335.453"/>
		<line fill="none" stroke="#000" stroke-width="3" stroke-linecap="round" x1="265.93" y1="339.429" x2="267.918" y2="337.44"/>
		<line fill="none" stroke="#000" x1="259.965" y1="345.394" x2="269.907" y2="335.453"/>
		<line fill="none" stroke="#000" stroke-width="3" x1="270.9" y1="344.399" x2="274.877" y2="340.422"/>
		<line fill="none" stroke="#000" stroke-width="3" stroke-linecap="round" x1="270.9" y1="344.399" x2="272.889" y2="342.411"/>
		<line fill="none" stroke="#000" x1="264.935" y1="350.365" x2="274.877" y2="340.422"/>
		<line fill="none" stroke="#000" stroke-width="3" x1="275.872" y1="349.371" x2="279.848" y2="345.394"/>
		
			<line fill="none" stroke="#000" stroke-width="3" stroke-linecap="round" x1="275.872" y1="349.371" x2="277.86" y2="347.381"/>
		<line fill="none" stroke="#000" x1="269.906" y1="355.335" x2="279.848" y2="345.394"/>
		<line fill="none" stroke="#000" stroke-width="3" x1="280.843" y1="354.341" x2="284.819" y2="350.365"/>
		
			<line fill="none" stroke="#000" stroke-width="3" stroke-linecap="round" x1="280.843" y1="354.341" x2="282.832" y2="352.353"/>
		<line fill="none" stroke="#000" x1="274.877" y1="360.307" x2="284.819" y2="350.365"/>
		<line fill="none" stroke="#000" stroke-width="3" x1="285.814" y1="359.313" x2="289.791" y2="355.336"/>
		
			<line fill="none" stroke="#000" stroke-width="3" stroke-linecap="round" x1="285.814" y1="359.313" x2="287.803" y2="357.324"/>
		<line fill="none" stroke="#000" x1="279.849" y1="365.278" x2="289.791" y2="355.336"/>
		<line fill="none" stroke="#000" stroke-width="3" x1="290.785" y1="364.284" x2="294.762" y2="360.307"/>
		
			<line fill="none" stroke="#000" stroke-width="3" stroke-linecap="round" x1="290.785" y1="364.284" x2="292.774" y2="362.295"/>
		<line fill="none" stroke="#000" x1="284.82" y1="370.25" x2="294.762" y2="360.307"/>
		<line fill="none" stroke="#000" stroke-width="3" x1="295.755" y1="369.254" x2="299.732" y2="365.278"/>
		
			<line fill="none" stroke="#000" stroke-width="3" stroke-linecap="round" x1="295.755" y1="369.254" x2="297.744" y2="367.266"/>
		<line fill="none" stroke="#000" x1="289.79" y1="375.219" x2="299.732" y2="365.278"/>
		<line fill="none" stroke="#000" stroke-width="3" x1="314.646" y1="365.278" x2="316.634" y2="367.266"/>
		
			<line fill="none" stroke="#000" stroke-width="3" stroke-linecap="round" x1="318.622" y1="369.254" x2="316.634" y2="367.266"/>
		<line fill="none" stroke="#000" x1="314.646" y1="365.278" x2="324.588" y2="375.219"/>
		<line fill="none" stroke="#000" stroke-width="3" x1="319.617" y1="360.307" x2="321.604" y2="362.295"/>
		
			<line fill="none" stroke="#000" stroke-width="3" stroke-linecap="round" x1="323.593" y1="364.284" x2="321.604" y2="362.295"/>
		<line fill="none" stroke="#000" x1="319.617" y1="360.307" x2="329.559" y2="370.249"/>
		<line fill="none" stroke="#000" stroke-width="3" x1="324.588" y1="355.336" x2="326.576" y2="357.324"/>
		
			<line fill="none" stroke="#000" stroke-width="3" stroke-linecap="round" x1="328.564" y1="359.312" x2="326.576" y2="357.324"/>
		<line fill="none" stroke="#000" x1="324.588" y1="355.336" x2="334.529" y2="365.278"/>
		<line fill="none" stroke="#000" stroke-width="3" x1="329.56" y1="350.365" x2="331.547" y2="352.353"/>
		
			<line fill="none" stroke="#000" stroke-width="3" stroke-linecap="round" x1="333.535" y1="354.341" x2="331.547" y2="352.353"/>
		<line fill="none" stroke="#000" x1="329.56" y1="350.365" x2="339.501" y2="360.306"/>
		<line fill="none" stroke="#000" stroke-width="3" x1="334.53" y1="345.394" x2="336.519" y2="347.381"/>
		
			<line fill="none" stroke="#000" stroke-width="3" stroke-linecap="round" x1="338.507" y1="349.37" x2="336.519" y2="347.381"/>
		<line fill="none" stroke="#000" x1="334.53" y1="345.394" x2="344.472" y2="355.335"/>
		<line fill="none" stroke="#000" stroke-width="3" x1="339.501" y1="340.423" x2="341.489" y2="342.411"/>
		
			<line fill="none" stroke="#000" stroke-width="3" stroke-linecap="round" x1="343.478" y1="344.399" x2="341.489" y2="342.411"/>
		<line fill="none" stroke="#000" x1="339.501" y1="340.423" x2="349.442" y2="350.365"/>
		<line fill="none" stroke="#000" stroke-width="3" x1="344.473" y1="335.452" x2="346.46" y2="337.44"/>
		<line fill="none" stroke="#000" stroke-width="3" stroke-linecap="round" x1="348.448" y1="339.428" x2="346.46" y2="337.44"/>
		<line fill="none" stroke="#000" x1="344.473" y1="335.452" x2="354.414" y2="345.393"/>
		<line fill="none" stroke="#000" stroke-width="3" x1="349.443" y1="330.481" x2="351.432" y2="332.468"/>
		
			<line fill="none" stroke="#000" stroke-width="3" stroke-linecap="round" x1="353.42" y1="334.457" x2="351.432" y2="332.468"/>
		<line fill="none" stroke="#000" x1="349.443" y1="330.481" x2="359.385" y2="340.422"/>
		<line fill="none" stroke="#000" stroke-width="3" x1="354.414" y1="325.51" x2="356.402" y2="327.499"/>
		
			<line fill="none" stroke="#000" stroke-width="3" stroke-linecap="round" x1="358.39" y1="329.486" x2="356.402" y2="327.499"/>
		<line fill="none" stroke="#000" x1="354.414" y1="325.51" x2="364.355" y2="335.452"/>
		<line fill="none" stroke="#000" stroke-width="3" x1="359.386" y1="320.539" x2="361.374" y2="322.527"/>
		
			<line fill="none" stroke="#000" stroke-width="3" stroke-linecap="round" x1="363.361" y1="324.514" x2="361.374" y2="322.527"/>
		<line fill="none" stroke="#000" x1="359.386" y1="320.539" x2="369.327" y2="330.48"/>
		<line fill="none" stroke="#000" stroke-width="3" x1="364.357" y1="315.567" x2="366.345" y2="317.555"/>
		
			<line fill="none" stroke="#000" stroke-width="3" stroke-linecap="round" x1="368.333" y1="319.543" x2="366.345" y2="317.555"/>
		<line fill="none" stroke="#000" x1="364.357" y1="315.567" x2="374.299" y2="325.509"/>
		<line fill="none" stroke="#000" stroke-width="3" x1="369.327" y1="310.597" x2="371.315" y2="312.584"/>
		
			<line fill="none" stroke="#000" stroke-width="3" stroke-linecap="round" x1="373.304" y1="314.573" x2="371.315" y2="312.584"/>
		<line fill="none" stroke="#000" x1="369.327" y1="310.597" x2="379.269" y2="320.539"/>
		<line fill="none" stroke="#000" stroke-width="3" x1="241.074" y1="291.707" x2="245.051" y2="295.683"/>
		
			<line fill="none" stroke="#000" stroke-width="3" stroke-linecap="round" x1="241.074" y1="291.707" x2="243.063" y2="293.694"/>
		<line fill="none" stroke="#000" x1="235.109" y1="285.741" x2="245.051" y2="295.683"/>
		<line fill="none" stroke="#000" stroke-width="3" x1="246.045" y1="286.736" x2="250.022" y2="290.712"/>
		
			<line fill="none" stroke="#000" stroke-width="3" stroke-linecap="round" x1="246.045" y1="286.736" x2="248.033" y2="288.724"/>
		<line fill="none" stroke="#000" x1="240.08" y1="280.77" x2="250.022" y2="290.712"/>
		<line fill="none" stroke="#000" stroke-width="3" x1="251.017" y1="281.765" x2="254.993" y2="285.741"/>
		
			<line fill="none" stroke="#000" stroke-width="3" stroke-linecap="round" x1="251.017" y1="281.765" x2="253.004" y2="283.752"/>
		<line fill="none" stroke="#000" x1="245.051" y1="275.799" x2="254.993" y2="285.741"/>
		<line fill="none" stroke="#000" stroke-width="3" x1="255.988" y1="276.793" x2="259.964" y2="280.77"/>
		
			<line fill="none" stroke="#000" stroke-width="3" stroke-linecap="round" x1="255.988" y1="276.793" x2="257.976" y2="278.781"/>
		<line fill="none" stroke="#000" x1="250.022" y1="270.828" x2="259.964" y2="280.77"/>
		<line fill="none" stroke="#000" stroke-width="3" x1="260.959" y1="271.822" x2="264.936" y2="275.799"/>
		
			<line fill="none" stroke="#000" stroke-width="3" stroke-linecap="round" x1="260.959" y1="271.822" x2="262.947" y2="273.81"/>
		<line fill="none" stroke="#000" x1="254.993" y1="265.856" x2="264.936" y2="275.799"/>
		<line fill="none" stroke="#000" stroke-width="3" x1="265.93" y1="266.852" x2="269.906" y2="270.828"/>
		
			<line fill="none" stroke="#000" stroke-width="3" stroke-linecap="round" x1="265.93" y1="266.852" x2="267.917" y2="268.839"/>
		<line fill="none" stroke="#000" x1="259.964" y1="260.886" x2="269.906" y2="270.828"/>
		<line fill="none" stroke="#000" stroke-width="3" x1="270.901" y1="261.88" x2="274.877" y2="265.857"/>
		
			<line fill="none" stroke="#000" stroke-width="3" stroke-linecap="round" x1="270.901" y1="261.88" x2="272.889" y2="263.868"/>
		<line fill="none" stroke="#000" x1="264.935" y1="255.915" x2="274.877" y2="265.857"/>
		<line fill="none" stroke="#000" stroke-width="3" x1="275.872" y1="256.909" x2="279.849" y2="260.886"/>
		
			<line fill="none" stroke="#000" stroke-width="3" stroke-linecap="round" x1="275.872" y1="256.909" x2="277.86" y2="258.897"/>
		<line fill="none" stroke="#000" x1="269.906" y1="250.943" x2="279.849" y2="260.886"/>
		<line fill="none" stroke="#000" stroke-width="3" x1="280.842" y1="251.938" x2="284.819" y2="255.916"/>
		
			<line fill="none" stroke="#000" stroke-width="3" stroke-linecap="round" x1="280.842" y1="251.938" x2="282.831" y2="253.927"/>
		<line fill="none" stroke="#000" x1="274.877" y1="245.973" x2="284.819" y2="255.916"/>
		<line fill="none" stroke="#000" stroke-width="3" x1="285.814" y1="246.967" x2="289.791" y2="250.943"/>
		
			<line fill="none" stroke="#000" stroke-width="3" stroke-linecap="round" x1="285.814" y1="246.967" x2="287.802" y2="248.955"/>
		<line fill="none" stroke="#000" x1="279.849" y1="241.001" x2="289.791" y2="250.943"/>
		<line fill="none" stroke="#000" stroke-width="3" x1="290.785" y1="241.996" x2="294.762" y2="245.972"/>
		
			<line fill="none" stroke="#000" stroke-width="3" stroke-linecap="round" x1="290.785" y1="241.996" x2="292.773" y2="243.984"/>
		<line fill="none" stroke="#000" x1="284.82" y1="236.03" x2="294.762" y2="245.972"/>
		<line fill="none" stroke="#000" stroke-width="3" x1="295.756" y1="237.025" x2="299.732" y2="241.002"/>
		
			<line fill="none" stroke="#000" stroke-width="3" stroke-linecap="round" x1="295.756" y1="237.025" x2="297.744" y2="239.013"/>
		<line fill="none" stroke="#000" x1="289.79" y1="231.06" x2="299.732" y2="241.002"/>
		<line fill="none" stroke="#000" stroke-width="3" x1="314.646" y1="241.001" x2="316.634" y2="239.013"/>
		
			<line fill="none" stroke="#000" stroke-width="3" stroke-linecap="round" x1="318.622" y1="237.024" x2="316.634" y2="239.013"/>
		<line fill="none" stroke="#000" x1="314.646" y1="241.001" x2="324.587" y2="231.059"/>
		<line fill="none" stroke="#000" stroke-width="3" x1="319.617" y1="245.972" x2="321.605" y2="243.984"/>
		
			<line fill="none" stroke="#000" stroke-width="3" stroke-linecap="round" x1="323.594" y1="241.996" x2="321.605" y2="243.984"/>
		<line fill="none" stroke="#000" x1="319.617" y1="245.972" x2="329.559" y2="236.031"/>
		<line fill="none" stroke="#000" stroke-width="3" x1="324.588" y1="250.943" x2="326.576" y2="248.955"/>
		
			<line fill="none" stroke="#000" stroke-width="3" stroke-linecap="round" x1="328.564" y1="246.966" x2="326.576" y2="248.955"/>
		<line fill="none" stroke="#000" x1="324.588" y1="250.943" x2="334.529" y2="241.001"/>
		<line fill="none" stroke="#000" stroke-width="3" x1="329.559" y1="255.914" x2="331.547" y2="253.926"/>
		
			<line fill="none" stroke="#000" stroke-width="3" stroke-linecap="round" x1="333.535" y1="251.937" x2="331.547" y2="253.926"/>
		<line fill="none" stroke="#000" x1="329.559" y1="255.914" x2="339.5" y2="245.972"/>
		<line fill="none" stroke="#000" stroke-width="3" x1="334.53" y1="260.885" x2="336.519" y2="258.897"/>
		
			<line fill="none" stroke="#000" stroke-width="3" stroke-linecap="round" x1="338.507" y1="256.909" x2="336.519" y2="258.897"/>
		<line fill="none" stroke="#000" x1="334.53" y1="260.885" x2="344.472" y2="250.944"/>
		<line fill="none" stroke="#000" stroke-width="3" x1="339.502" y1="265.857" x2="341.49" y2="263.869"/>
		<line fill="none" stroke="#000" stroke-width="3" stroke-linecap="round" x1="343.479" y1="261.88" x2="341.49" y2="263.869"/>
		<line fill="none" stroke="#000" x1="339.502" y1="265.857" x2="349.443" y2="255.916"/>
		<line fill="none" stroke="#000" stroke-width="3" x1="344.473" y1="270.828" x2="346.46" y2="268.839"/>
		
			<line fill="none" stroke="#000" stroke-width="3" stroke-linecap="round" x1="348.449" y1="266.851" x2="346.46" y2="268.839"/>
		<line fill="none" stroke="#000" x1="344.473" y1="270.828" x2="354.414" y2="260.886"/>
		<line fill="none" stroke="#000" stroke-width="3" x1="349.443" y1="275.799" x2="351.432" y2="273.811"/>
		
			<line fill="none" stroke="#000" stroke-width="3" stroke-linecap="round" x1="353.42" y1="271.822" x2="351.432" y2="273.811"/>
		<line fill="none" stroke="#000" x1="349.443" y1="275.799" x2="359.385" y2="265.857"/>
		<line fill="none" stroke="#000" stroke-width="3" x1="354.414" y1="280.77" x2="356.402" y2="278.782"/>
		
			<line fill="none" stroke="#000" stroke-width="3" stroke-linecap="round" x1="358.392" y1="276.793" x2="356.402" y2="278.782"/>
		<line fill="none" stroke="#000" x1="354.414" y1="280.77" x2="364.356" y2="270.828"/>
		<line fill="none" stroke="#000" stroke-width="3" x1="359.386" y1="285.741" x2="361.374" y2="283.753"/>
		
			<line fill="none" stroke="#000" stroke-width="3" stroke-linecap="round" x1="363.362" y1="281.764" x2="361.374" y2="283.753"/>
		<line fill="none" stroke="#000" x1="359.386" y1="285.741" x2="369.327" y2="275.799"/>
		<line fill="none" stroke="#000" stroke-width="3" x1="364.356" y1="290.712" x2="366.345" y2="288.724"/>
		
			<line fill="none" stroke="#000" stroke-width="3" stroke-linecap="round" x1="368.334" y1="286.735" x2="366.345" y2="288.724"/>
		<line fill="none" stroke="#000" x1="364.356" y1="290.712" x2="374.299" y2="280.771"/>
		<line fill="none" stroke="#000" stroke-width="3" x1="369.327" y1="295.683" x2="371.315" y2="293.694"/>
		
			<line fill="none" stroke="#000" stroke-width="3" stroke-linecap="round" x1="373.304" y1="291.706" x2="371.315" y2="293.694"/>
		<line fill="none" stroke="#000" x1="369.327" y1="295.683" x2="379.269" y2="285.741"/>
	</g>
	<g>
		<path fill="#1E2022" d="M307.189,369.766c-1.863,0-3.615-0.726-4.932-2.043l-59.653-59.651c-1.317-1.317-2.042-3.069-2.042-4.932
			s0.725-3.614,2.042-4.932l59.653-59.652c1.317-1.317,3.068-2.042,4.932-2.042c1.862,0,3.613,0.725,4.932,2.042l59.652,59.652
			c2.719,2.719,2.719,7.144,0.001,9.863l-59.653,59.653C310.803,369.041,309.052,369.766,307.189,369.766z"/>
		<path fill="#52626B" d="M307.189,237.863c1.439,0,2.879,0.549,3.977,1.647l59.653,59.652c2.195,2.196,2.195,5.758,0,7.954
			l-59.653,59.652c-1.098,1.098-2.537,1.647-3.977,1.647c-1.44,0-2.879-0.55-3.977-1.647l-59.653-59.652
			c-2.196-2.196-2.196-5.758,0-7.954l59.653-59.652C304.311,238.412,305.75,237.863,307.189,237.863 M307.189,235.163
			c-2.224,0-4.314,0.866-5.886,2.438l-59.653,59.652c-3.246,3.246-3.246,8.526,0,11.772l59.653,59.652
			c1.572,1.572,3.662,2.438,5.886,2.438c2.223,0,4.313-0.866,5.886-2.438l59.653-59.652c3.244-3.246,3.244-8.526,0-11.772
			l-59.653-59.653C311.503,236.029,309.412,235.163,307.189,235.163L307.189,235.163z"/>
	</g>
	<path fill="#F0F5F9" d="M311.72,269.739h-24.542c-0.776,0-1.406,0.63-1.406,1.406v59.018c0,0.777,0.629,1.406,1.406,1.406h9.843
		c0.776,0,1.405-0.63,1.405-1.405l0-18.279h12.831c13.142,0,22.32-8.744,22.319-21.266
		C333.577,278.13,324.795,269.739,311.72,269.739z M308.914,302.042h-10.488v-22.496h10.529c7.65,0,11.967,3.958,11.967,11.332
		C320.922,298.043,316.48,302.042,308.914,302.042z"/>
</g>
</svg>
