<?xml version="1.0" encoding="iso-8859-1"?>
<!DOCTYPE svg PUBLIC "-//W3C//DTD SVG 1.1//EN" "http://www.w3.org/Graphics/SVG/1.1/DTD/svg11.dtd">

<svg version="1.1" xmlns="http://www.w3.org/2000/svg" xmlns:xlink="http://www.w3.org/1999/xlink" id="pcodelogo" viewBox="0 0 100 100" data-pin="0">

<g  style="transform: rotate(-45deg); transform-origin: center;">
<rect x="10" width="80" height="80" rx="10" fill-opacity="0" stroke="#1e2022" stroke-width="10%" y="10"></rect>


<!--   LEFT  -->
<g stroke="#c9d6df">
<line x1="11" x2="15" y1="22.5" y2="22.5" stroke-width="3" ></line>
<line x1="11" x2="13" y1="22.5" y2="22.5" stroke-width="3" stroke-linecap="round" ></line>
<line x1="5" x2="15" y1="22.5" y2="22.5" ></line>
</g>
	
<g stroke="#c9d6df">
<line x1="11" x2="15" y1="27.5" y2="27.5" stroke-width="3" ></line>
<line x1="11" x2="13" y1="27.5" y2="27.5" stroke-width="3" stroke-linecap="round" ></line>
<line x1="5" x2="15" y1="27.5" y2="27.5" ></line>
</g>

<g stroke="#c9d6df">
<line x1="11" x2="15" y1="32.5" y2="32.5" stroke-width="3" ></line> 
<line x1="11" x2="13" y1="32.5" y2="32.5" stroke-width="3" stroke-linecap="round" ></line>
<line x1="5" x2="15" y1="32.5" y2="32.5" ></line>
</g>

<g stroke="#c9d6df">
<line x1="11" x2="15" y1="37.5" y2="37.5" stroke-width="3" ></line>
<line x1="11" x2="13" y1="37.5" y2="37.5" stroke-width="3" stroke-linecap="round" ></line>
<line x1="5" x2="15" y1="37.5" y2="37.5" ></line>
</g>

<g stroke="#c9d6df">
<line x1="11" x2="15" y1="42.5" y2="42.5" stroke-width="3" ></line>
<line x1="11" x2="13" y1="42.5" y2="42.5" stroke-width="3" stroke-linecap="round" ></line>
<line x1="5" x2="15" y1="42.5" y2="42.5" ></line>
</g>

<g stroke="#c9d6df">
<line x1="11" x2="15" y1="47.5" y2="47.5" stroke-width="3" ></line>
<line x1="11" x2="13" y1="47.5" y2="47.5" stroke-width="3" stroke-linecap="round" ></line>
<line x1="5" x2="15" y1="47.5" y2="47.5" ></line>
</g>

<g stroke="#c9d6df">
<line x1="11" x2="15" y1="52.5" y2="52.5" stroke-width="3" ></line>
<line x1="11" x2="13" y1="52.5" y2="52.5" stroke-width="3" stroke-linecap="round" ></line>
<line x1="5" x2="15" y1="52.5" y2="52.5" ></line>
</g>

<g stroke="#c9d6df">
<line x1="11" x2="15" y1="57.5" y2="57.5" stroke-width="3" ></line>
<line x1="11" x2="13" y1="57.5" y2="57.5" stroke-width="3" stroke-linecap="round" ></line>
<line x1="5" x2="15" y1="57.5" y2="57.5" ></line>
</g>

<g stroke="#c9d6df">
<line x1="11" x2="15" y1="62.5" y2="62.5" stroke-width="3" ></line>
<line x1="11" x2="13" y1="62.5" y2="62.5" stroke-width="3" stroke-linecap="round" ></line>
<line x1="5" x2="15" y1="62.5" y2="62.5" ></line>
</g>

<g stroke="#c9d6df">
<line x1="11" x2="15" y1="67.5" y2="67.5" stroke-width="3" ></line>
<line x1="11" x2="13" y1="67.5" y2="67.5" stroke-width="3" stroke-linecap="round" ></line>
<line x1="5" x2="15" y1="67.5" y2="67.5" ></line>
</g>

<g stroke="#c9d6df">
<line x1="11" x2="15" y1="72.5" y2="72.5" stroke-width="3" ></line> 
<line x1="11" x2="13" y1="72.5" y2="72.5" stroke-width="3" stroke-linecap="round" ></line>
<line x1="5" x2="15" y1="72.5" y2="72.5" ></line>
</g>

<g stroke="#c9d6df">
<line x1="11" x2="15" y1="77.5" y2="77.5" stroke-width="3" ></line>
<line x1="11" x2="13" y1="77.5" y2="77.5" stroke-width="3" stroke-linecap="round" ></line>
<line x1="5" x2="15" y1="77.5" y2="77.5" ></line>
</g>


<!--   BOTTOM  -->
<g stroke="#c9d6df">
<line y1="85" y2="87" x1="22.5" x2="22.5" stroke-width="3" ></line>
<line y1="89" y2="87" x1="22.5" x2="22.5" stroke-width="3" stroke-linecap="round" ></line>
<line y1="85" y2="95" x1="22.5" x2="22.5" ></line>
</g>
	
<g stroke="#c9d6df">
<line y1="85" y2="87" x1="27.5" x2="27.5" stroke-width="3" ></line>
<line y1="89" y2="87" x1="27.5" x2="27.5" stroke-width="3" stroke-linecap="round" ></line>
<line y1="85" y2="95" x1="27.5" x2="27.5" ></line>
</g>

<g stroke="#c9d6df">
<line y1="85" y2="87" x1="32.5" x2="32.5" stroke-width="3" ></line> 
<line y1="89" y2="87" x1="32.5" x2="32.5" stroke-width="3" stroke-linecap="round" ></line>
<line y1="85" y2="95" x1="32.5" x2="32.5" ></line>
</g>

<g stroke="#c9d6df">
<line y1="85" y2="87" x1="37.5" x2="37.5" stroke-width="3" ></line>
<line y1="89" y2="87" x1="37.5" x2="37.5" stroke-width="3" stroke-linecap="round" ></line>
<line y1="85" y2="95" x1="37.5" x2="37.5" ></line>
</g>

<g stroke="#c9d6df">
<line y1="85" y2="87" x1="42.5" x2="42.5" stroke-width="3" ></line>
<line y1="89" y2="87" x1="42.5" x2="42.5" stroke-width="3" stroke-linecap="round" ></line>
<line y1="85" y2="95" x1="42.5" x2="42.5" ></line>
</g>

<g stroke="#c9d6df">
<line y1="85" y2="87" x1="47.5" x2="47.5" stroke-width="3" ></line>
<line y1="89" y2="87" x1="47.5" x2="47.5" stroke-width="3" stroke-linecap="round" ></line>
<line y1="85" y2="95" x1="47.5" x2="47.5" ></line>
</g>

<g stroke="#c9d6df">
<line y1="85" y2="87" x1="52.5" x2="52.5" stroke-width="3" ></line>
<line y1="89" y2="87" x1="52.5" x2="52.5" stroke-width="3" stroke-linecap="round" ></line>
<line y1="85" y2="95" x1="52.5" x2="52.5" ></line>
</g>

<g stroke="#c9d6df">
<line y1="85" y2="87" x1="57.5" x2="57.5" stroke-width="3" ></line>
<line y1="89" y2="87" x1="57.5" x2="57.5" stroke-width="3" stroke-linecap="round" ></line>
<line y1="85" y2="95" x1="57.5" x2="57.5" ></line>
</g>

<g stroke="#c9d6df">
<line y1="85" y2="87" x1="62.5" x2="62.5" stroke-width="3" ></line>
<line y1="89" y2="87" x1="62.5" x2="62.5" stroke-width="3" stroke-linecap="round" ></line>
<line y1="85" y2="95" x1="62.5" x2="62.5" ></line>
</g>

<g stroke="#c9d6df">
<line y1="85" y2="87" x1="67.5" x2="67.5" stroke-width="3" ></line>
<line y1="89" y2="87" x1="67.5" x2="67.5" stroke-width="3" stroke-linecap="round" ></line>
<line y1="85" y2="95" x1="67.5" x2="67.5" ></line>
</g>

<g stroke="#c9d6df">
<line y1="85" y2="87" x1="72.5" x2="72.5" stroke-width="3" ></line> 
<line y1="89" y2="87" x1="72.5" x2="72.5" stroke-width="3" stroke-linecap="round" ></line>
<line y1="85" y2="95" x1="72.5" x2="72.5" ></line>
</g>

<g stroke="#c9d6df">
<line y1="85" y2="87" x1="77.5" x2="77.5" stroke-width="3" ></line>
<line y1="89" y2="87" x1="77.5" x2="77.5" stroke-width="3" stroke-linecap="round" ></line>
<line y1="85" y2="95" x1="77.5" x2="77.5" ></line>
</g>

<!--  TOP -->
<g stroke="#c9d6df">
<line y1="11" y2="15" x1="22.5" x2="22.5" stroke-width="3" ></line>
<line y1="11" y2="13" x1="22.5" x2="22.5" stroke-width="3" stroke-linecap="round" ></line>
<line y1="5" y2="15" x1="22.5" x2="22.5" ></line>
</g>
	
<g stroke="#c9d6df">
<line y1="11" y2="15" x1="27.5" x2="27.5" stroke-width="3" ></line>
<line y1="11" y2="13" x1="27.5" x2="27.5" stroke-width="3" stroke-linecap="round" ></line>
<line y1="5" y2="15" x1="27.5" x2="27.5" ></line>
</g>

<g stroke="#c9d6df">
<line y1="11" y2="15" x1="32.5" x2="32.5" stroke-width="3" ></line> 
<line y1="11" y2="13" x1="32.5" x2="32.5" stroke-width="3" stroke-linecap="round" ></line>
<line y1="5" y2="15" x1="32.5" x2="32.5" ></line>
</g>

<g stroke="#c9d6df">
<line y1="11" y2="15" x1="37.5" x2="37.5" stroke-width="3" ></line>
<line y1="11" y2="13" x1="37.5" x2="37.5" stroke-width="3" stroke-linecap="round" ></line>
<line y1="5" y2="15" x1="37.5" x2="37.5" ></line>
</g>

<g stroke="#c9d6df">
<line y1="11" y2="15" x1="42.5" x2="42.5" stroke-width="3" ></line>
<line y1="11" y2="13" x1="42.5" x2="42.5" stroke-width="3" stroke-linecap="round" ></line>
<line y1="5" y2="15" x1="42.5" x2="42.5" ></line>
</g>

<g stroke="#c9d6df">
<line y1="11" y2="15" x1="47.5" x2="47.5" stroke-width="3" ></line>
<line y1="11" y2="13" x1="47.5" x2="47.5" stroke-width="3" stroke-linecap="round" ></line>
<line y1="5" y2="15" x1="47.5" x2="47.5" ></line>
</g>

<g stroke="#c9d6df">
<line y1="11" y2="15" x1="52.5" x2="52.5" stroke-width="3" ></line>
<line y1="11" y2="13" x1="52.5" x2="52.5" stroke-width="3" stroke-linecap="round" ></line>
<line y1="5" y2="15" x1="52.5" x2="52.5" ></line>
</g>

<g stroke="#c9d6df">
<line y1="11" y2="15" x1="57.5" x2="57.5" stroke-width="3" ></line>
<line y1="11" y2="13" x1="57.5" x2="57.5" stroke-width="3" stroke-linecap="round" ></line>
<line y1="5" y2="15" x1="57.5" x2="57.5" ></line>
</g>

<g stroke="#c9d6df">
<line y1="11" y2="15" x1="62.5" x2="62.5" stroke-width="3" ></line>
<line y1="11" y2="13" x1="62.5" x2="62.5" stroke-width="3" stroke-linecap="round" ></line>
<line y1="5" y2="15" x1="62.5" x2="62.5" ></line>
</g>

<g stroke="#c9d6df">
<line y1="11" y2="15" x1="67.5" x2="67.5" stroke-width="3" ></line>
<line y1="11" y2="13" x1="67.5" x2="67.5" stroke-width="3" stroke-linecap="round" ></line>
<line y1="5" y2="15" x1="67.5" x2="67.5" ></line>
</g>

<g stroke="#c9d6df">
<line y1="11" y2="15" x1="72.5" x2="72.5" stroke-width="3" ></line> 
<line y1="11" y2="13" x1="72.5" x2="72.5" stroke-width="3" stroke-linecap="round" ></line>
<line y1="5" y2="15" x1="72.5" x2="72.5" ></line>
</g>

<g stroke="#c9d6df">
<line y1="11" y2="15" x1="77.5" x2="77.5" stroke-width="3" ></line>
<line y1="11" y2="13" x1="77.5" x2="77.5" stroke-width="3" stroke-linecap="round" ></line>
<line y1="5" y2="15" x1="77.5" x2="77.5" ></line>
</g>


<!--   RIGHT  -->
<g stroke="#c9d6df">
<line x1="85" x2="87" y1="22.5" y2="22.5" stroke-width="3" ></line>
<line x1="89" x2="87" y1="22.5" y2="22.5" stroke-width="3" stroke-linecap="round" ></line>
<line x1="85" x2="95" y1="22.5" y2="22.5" ></line>
</g>
	
<g stroke="#c9d6df">
<line x1="85" x2="87" y1="27.5" y2="27.5" stroke-width="3" ></line>
<line x1="89" x2="87" y1="27.5" y2="27.5" stroke-width="3" stroke-linecap="round" ></line>
<line x1="85" x2="95" y1="27.5" y2="27.5" ></line>
</g>

<g stroke="#c9d6df">
<line x1="85" x2="87" y1="32.5" y2="32.5" stroke-width="3" ></line> 
<line x1="89" x2="87" y1="32.5" y2="32.5" stroke-width="3" stroke-linecap="round" ></line>
<line x1="85" x2="95" y1="32.5" y2="32.5" ></line>
</g>

<g stroke="#c9d6df">
<line x1="85" x2="87" y1="37.5" y2="37.5" stroke-width="3" ></line>
<line x1="89" x2="87" y1="37.5" y2="37.5" stroke-width="3" stroke-linecap="round" ></line>
<line x1="85" x2="95" y1="37.5" y2="37.5" ></line>
</g>

<g stroke="#c9d6df">
<line x1="85" x2="87" y1="42.5" y2="42.5" stroke-width="3" ></line>
<line x1="89" x2="87" y1="42.5" y2="42.5" stroke-width="3" stroke-linecap="round" ></line>
<line x1="85" x2="95" y1="42.5" y2="42.5" ></line>
</g>

<g stroke="#c9d6df">
<line x1="85" x2="87" y1="47.5" y2="47.5" stroke-width="3" ></line>
<line x1="89" x2="87" y1="47.5" y2="47.5" stroke-width="3" stroke-linecap="round" ></line>
<line x1="85" x2="95" y1="47.5" y2="47.5" ></line>
</g>

<g stroke="#c9d6df">
<line x1="85" x2="87" y1="52.5" y2="52.5" stroke-width="3" ></line>
<line x1="89" x2="87" y1="52.5" y2="52.5" stroke-width="3" stroke-linecap="round" ></line>
<line x1="85" x2="95" y1="52.5" y2="52.5" ></line>
</g>

<g stroke="#c9d6df">
<line x1="85" x2="87" y1="57.5" y2="57.5" stroke-width="3" ></line>
<line x1="89" x2="87" y1="57.5" y2="57.5" stroke-width="3" stroke-linecap="round" ></line>
<line x1="85" x2="95" y1="57.5" y2="57.5" ></line>
</g>

<g stroke="#c9d6df">
<line x1="85" x2="87" y1="62.5" y2="62.5" stroke-width="3" ></line>
<line x1="89" x2="87" y1="62.5" y2="62.5" stroke-width="3" stroke-linecap="round" ></line>
<line x1="85" x2="95" y1="62.5" y2="62.5" ></line>
</g>

<g stroke="#c9d6df">
<line x1="85" x2="87" y1="67.5" y2="67.5" stroke-width="3" ></line>
<line x1="89" x2="87" y1="67.5" y2="67.5" stroke-width="3" stroke-linecap="round" ></line>
<line x1="85" x2="95" y1="67.5" y2="67.5" ></line>
</g>

<g stroke="#c9d6df">
<line x1="85" x2="87" y1="72.5" y2="72.5" stroke-width="3" ></line> 
<line x1="89" x2="87" y1="72.5" y2="72.5" stroke-width="3" stroke-linecap="round" ></line>
<line x1="85" x2="95" y1="72.5" y2="72.5" ></line>
</g>

<g stroke="#c9d6df">
<line x1="85" x2="87" y1="77.5" y2="77.5" stroke-width="3" ></line>
<line x1="89" x2="87" y1="77.5" y2="77.5" stroke-width="3" stroke-linecap="round" ></line>
<line x1="85" x2="95" y1="77.5" y2="77.5" ></line>
</g>




<rect x="16" width="68" height="68" rx="4" stroke="#52616b" fill="#1e2022" stroke-width="2%" y="16"></rect>
<path fill = "#f0f5f9" d="M26.455,3.025H9c-0.552,0-1,0.448-1,1V46c0,0.552,0.448,1,1,1h7c0.552,0,1-0.448,1-1V33h9.125C35.472,33,42,26.78,42,17.875 C42,8.993,35.753,3.025,26.455,3.025z M24.459,26H17V10h7.488C29.929,10,33,12.815,33,18.059C33,23.156,29.841,26,24.459,26z" style="
    transform: translate(52px, 17px) rotate(45deg);"></path>
</g>
</svg>